<?xml version="1.0" encoding="utf-8"?>
<svg xmlns="http://www.w3.org/2000/svg" width="2160" height="2160" viewBox="0 0 2160 2160" version="1.1" id="svg_1" style="fill: none; stroke: none">
  <g transform="matrix(1.083496, 0, 0, 1.083496, -134.455612, 30.212198)" style="">
    <g id="g_2" transform="matrix(2.428824, 0, 0, 2.428824, -1286.253906, -575.096863)" style="">
      <g id="g_3" transform="matrix(2.25, 0.0, 0.0, 2.25, 0.0, 0.0)" style="">
        <g id="Group_1" transform="matrix(1.0, 0.0, 0.0, 1.0, 431.194, 241.397)" style="fill-opacity:1.0;fill:hsl(14.8 63.1% 59.6%);fill-rule:nonzero">
          <path d="M 59.154,53.953 C 12.952000000000005,97.287 -61.532,76.924 -82.502,18.411 C -88.041,2.9560000000000013 -90.73599999999999,-12.768 -86.228,-28.931 C -77.33699999999999,-60.811 -61.870000000000005,-85.533 -28.042,-93.745 C -14.916000000000002,-96.93100000000001 -10.525,-94.522 1.141,-94.781 C 12.259,-95.028 14.089,-97.28699999999999 26.355,-93.445 C 51.452,-85.583 72.834,-73.148 79.316,-46.406 C 88.952,-6.643999999999998 90.736,24.331000000000003 59.154,53.953 Z" id="Path_1" style="fill-opacity:1.0;fill:hsl(14.8 63.1% 59.6%);fill-rule:nonzero"/>
        </g>
      </g>
    </g>
    <g id="g_4" transform="matrix(2.428824, 0, 0, 2.428824, -1286.253906, -575.096863)" style="">
      <g id="g_5" transform="matrix(2.25, 0.0, 0.0, 2.25, 0.0, 0.0)" style="">
        <g id="g_6" transform="matrix(1.0, 0.0, 0.0, 1.0, 478.705, 479.105)" style="fill-opacity:1.0;fill:hsl(0 0% 7%);fill-rule:nonzero">
          <path d="M -34.699 -102.11 C -11.534 -106.614 12.563 -107.334 35.291 -113.61 C 47.683 -117.145 40.58 -134.077 31.55 -136.858 C 23.063 -139.472 3.534 -134.365 -4.373 -130.274 C -11.216 -126.735 -28.456 -111.299 -33.211 -105.112 C -33.982 -104.109 -35.15 -103.843 -34.699 -102.11 Z M -35.704 -81.092 C -43.962 -76.685 -49.235 -78.314 -57.855 -67.605 C -61.305 -63.319 -66.031 -58.24 -71.076 -60.217 C -76.329 -62.275 -77.489 -64.107 -74.715 -74.106 C -72.282 -86.31 -69.613 -98.41 -67.877 -110.769 C -66.774 -118.62 -65.916 -126.951 -65.125 -134.778 C -64.331 -142.64 -67.128 -167.248 -53.671 -164.708 C -45.408 -163.148 -43.076 -155.248 -42.72 -147.59 C -42.301 -138.576 -43.093 -135.423 -46.704 -120.115 L -24.641 -140.541 C -3.702 -155.181 40.464 -163.388 55.462 -136.772 C 67.716 -115.027 50.4 -98.932 30.134 -93.766 C 8.419 -88.231 -14.777 -88.961 -35.704 -81.092 Z" id="path_7" style="fill-opacity:1.0;fill:hsl(0 0% 7%);fill-rule:nonzero"/>
        </g>
      </g>
    </g>
  </g>
</svg>